<mxfile host="app.diagrams.net" modified="2023-10-11T15:57:45.301Z" agent="Mozilla/5.0 (Windows NT 10.0; Win64; x64) AppleWebKit/537.36 (KHTML, like Gecko) Chrome/117.0.0.0 Safari/537.36" etag="JfyV4Xi9iqw-4f2qMZ0Z" version="22.0.4" type="device">
  <diagram id="prtHgNgQTEPvFCAcTncT" name="Page-1">
    <mxGraphModel dx="1687" dy="892" grid="1" gridSize="10" guides="1" tooltips="1" connect="1" arrows="1" fold="1" page="1" pageScale="1" pageWidth="1169" pageHeight="827" math="0" shadow="0">
      <root>
        <mxCell id="0" />
        <mxCell id="1" parent="0" />
        <mxCell id="CC6OImh5O8wck14vR6c3-58" style="edgeStyle=orthogonalEdgeStyle;rounded=0;orthogonalLoop=1;jettySize=auto;html=1;exitX=1;exitY=0.5;exitDx=0;exitDy=0;entryX=0;entryY=0.5;entryDx=0;entryDy=0;" edge="1" parent="1" source="CC6OImh5O8wck14vR6c3-37" target="CC6OImh5O8wck14vR6c3-25">
          <mxGeometry relative="1" as="geometry" />
        </mxCell>
        <mxCell id="CC6OImh5O8wck14vR6c3-60" value="No" style="edgeLabel;html=1;align=center;verticalAlign=middle;resizable=0;points=[];" vertex="1" connectable="0" parent="CC6OImh5O8wck14vR6c3-58">
          <mxGeometry x="0.0714" y="1" relative="1" as="geometry">
            <mxPoint as="offset" />
          </mxGeometry>
        </mxCell>
        <mxCell id="CC6OImh5O8wck14vR6c3-59" style="edgeStyle=orthogonalEdgeStyle;rounded=0;orthogonalLoop=1;jettySize=auto;html=1;exitX=0.5;exitY=1;exitDx=0;exitDy=0;entryX=0;entryY=0.5;entryDx=0;entryDy=0;" edge="1" parent="1" source="CC6OImh5O8wck14vR6c3-37" target="CC6OImh5O8wck14vR6c3-26">
          <mxGeometry relative="1" as="geometry">
            <Array as="points">
              <mxPoint x="321" y="255" />
            </Array>
          </mxGeometry>
        </mxCell>
        <mxCell id="CC6OImh5O8wck14vR6c3-62" value="Yes" style="edgeLabel;html=1;align=center;verticalAlign=middle;resizable=0;points=[];" vertex="1" connectable="0" parent="CC6OImh5O8wck14vR6c3-59">
          <mxGeometry x="0.5361" relative="1" as="geometry">
            <mxPoint as="offset" />
          </mxGeometry>
        </mxCell>
        <mxCell id="CC6OImh5O8wck14vR6c3-37" value="센서평균값 &amp;gt;= 최대하중" style="rhombus;whiteSpace=wrap;html=1;" vertex="1" parent="1">
          <mxGeometry x="240" y="155" width="161" height="60" as="geometry" />
        </mxCell>
        <mxCell id="CC6OImh5O8wck14vR6c3-42" value="RGB LED 센서&lt;br&gt;빛 값: 255 (on)" style="rounded=0;whiteSpace=wrap;html=1;fillColor=#dae8fc;strokeColor=#6c8ebf;" vertex="1" parent="1">
          <mxGeometry x="694" y="729" width="103.5" height="36" as="geometry" />
        </mxCell>
        <mxCell id="CC6OImh5O8wck14vR6c3-65" style="edgeStyle=orthogonalEdgeStyle;rounded=0;orthogonalLoop=1;jettySize=auto;html=1;exitX=1;exitY=0.5;exitDx=0;exitDy=0;entryX=0;entryY=0.5;entryDx=0;entryDy=0;" edge="1" parent="1" source="CC6OImh5O8wck14vR6c3-47" target="CC6OImh5O8wck14vR6c3-53">
          <mxGeometry relative="1" as="geometry" />
        </mxCell>
        <mxCell id="CC6OImh5O8wck14vR6c3-47" value="카메라 B0309 모듈" style="rounded=0;whiteSpace=wrap;html=1;fillColor=#dae8fc;strokeColor=#6c8ebf;" vertex="1" parent="1">
          <mxGeometry x="369.5" y="625" width="201" height="30" as="geometry" />
        </mxCell>
        <mxCell id="CC6OImh5O8wck14vR6c3-74" style="edgeStyle=orthogonalEdgeStyle;rounded=0;orthogonalLoop=1;jettySize=auto;html=1;exitX=1;exitY=0.5;exitDx=0;exitDy=0;entryX=0;entryY=0.5;entryDx=0;entryDy=0;" edge="1" parent="1" source="CC6OImh5O8wck14vR6c3-50" target="CC6OImh5O8wck14vR6c3-29">
          <mxGeometry relative="1" as="geometry" />
        </mxCell>
        <mxCell id="CC6OImh5O8wck14vR6c3-50" value="(센서최대값 - 센서평균값) /&lt;br&gt;(탑승자 1인당 가중치) = N(단위 백분위)&lt;br&gt;" style="rounded=0;whiteSpace=wrap;html=1;" vertex="1" parent="1">
          <mxGeometry x="310" y="325" width="236" height="60" as="geometry" />
        </mxCell>
        <mxCell id="CC6OImh5O8wck14vR6c3-51" value="RGB LED 센서&lt;br style=&quot;border-color: var(--border-color);&quot;&gt;빛 값: 0 (off)" style="rounded=0;whiteSpace=wrap;html=1;fillColor=#dae8fc;strokeColor=#6c8ebf;" vertex="1" parent="1">
          <mxGeometry x="875" y="499" width="103.5" height="36" as="geometry" />
        </mxCell>
        <mxCell id="CC6OImh5O8wck14vR6c3-69" style="edgeStyle=orthogonalEdgeStyle;rounded=0;orthogonalLoop=1;jettySize=auto;html=1;exitX=0.5;exitY=1;exitDx=0;exitDy=0;entryX=0.5;entryY=0;entryDx=0;entryDy=0;" edge="1" parent="1" source="CC6OImh5O8wck14vR6c3-53" target="CC6OImh5O8wck14vR6c3-42">
          <mxGeometry relative="1" as="geometry" />
        </mxCell>
        <mxCell id="CC6OImh5O8wck14vR6c3-70" value="No" style="edgeLabel;html=1;align=center;verticalAlign=middle;resizable=0;points=[];" vertex="1" connectable="0" parent="CC6OImh5O8wck14vR6c3-69">
          <mxGeometry x="0.1176" y="1" relative="1" as="geometry">
            <mxPoint as="offset" />
          </mxGeometry>
        </mxCell>
        <mxCell id="CC6OImh5O8wck14vR6c3-83" style="edgeStyle=orthogonalEdgeStyle;rounded=0;orthogonalLoop=1;jettySize=auto;html=1;exitX=0.5;exitY=0;exitDx=0;exitDy=0;entryX=0.5;entryY=1;entryDx=0;entryDy=0;" edge="1" parent="1" source="CC6OImh5O8wck14vR6c3-53" target="CC6OImh5O8wck14vR6c3-71">
          <mxGeometry relative="1" as="geometry" />
        </mxCell>
        <mxCell id="CC6OImh5O8wck14vR6c3-53" value="Yolo V5의 Object Detect 를 통한&lt;br&gt;탑승 인원(N) 인식&lt;br&gt;탑승 인원(N)이 0명인가?" style="rhombus;whiteSpace=wrap;html=1;" vertex="1" parent="1">
          <mxGeometry x="609.5" y="585" width="272.5" height="110" as="geometry" />
        </mxCell>
        <mxCell id="CC6OImh5O8wck14vR6c3-25" value="현재 무게: Full" style="shape=parallelogram;perimeter=parallelogramPerimeter;whiteSpace=wrap;html=1;fixedSize=1;fillColor=#d5e8d4;strokeColor=#82b366;" vertex="1" parent="1">
          <mxGeometry x="420" y="155" width="120" height="60" as="geometry" />
        </mxCell>
        <mxCell id="CC6OImh5O8wck14vR6c3-26" value="현재 무게: Free" style="shape=parallelogram;perimeter=parallelogramPerimeter;whiteSpace=wrap;html=1;fixedSize=1;fillColor=#d5e8d4;strokeColor=#82b366;" vertex="1" parent="1">
          <mxGeometry x="406.5" y="225" width="120" height="60" as="geometry" />
        </mxCell>
        <mxCell id="CC6OImh5O8wck14vR6c3-29" value="포화도: N%" style="shape=parallelogram;perimeter=parallelogramPerimeter;whiteSpace=wrap;html=1;fixedSize=1;fillColor=#d5e8d4;strokeColor=#82b366;" vertex="1" parent="1">
          <mxGeometry x="580" y="325" width="120" height="60" as="geometry" />
        </mxCell>
        <mxCell id="CC6OImh5O8wck14vR6c3-31" value="현재 탑승 인원: N명" style="shape=parallelogram;perimeter=parallelogramPerimeter;whiteSpace=wrap;html=1;fixedSize=1;fillColor=#d5e8d4;strokeColor=#82b366;" vertex="1" parent="1">
          <mxGeometry x="942" y="610" width="170" height="60" as="geometry" />
        </mxCell>
        <mxCell id="CC6OImh5O8wck14vR6c3-55" value="" style="group" vertex="1" connectable="0" parent="1">
          <mxGeometry x="20.5" y="125" width="201.5" height="120" as="geometry" />
        </mxCell>
        <mxCell id="CC6OImh5O8wck14vR6c3-38" value="로드셀 센서 1" style="rounded=0;whiteSpace=wrap;html=1;fillColor=#dae8fc;strokeColor=#6c8ebf;" vertex="1" parent="CC6OImh5O8wck14vR6c3-55">
          <mxGeometry width="201" height="30" as="geometry" />
        </mxCell>
        <mxCell id="CC6OImh5O8wck14vR6c3-39" value="로드셀 센서 2" style="rounded=0;whiteSpace=wrap;html=1;fillColor=#dae8fc;strokeColor=#6c8ebf;" vertex="1" parent="CC6OImh5O8wck14vR6c3-55">
          <mxGeometry y="30" width="201" height="30" as="geometry" />
        </mxCell>
        <mxCell id="CC6OImh5O8wck14vR6c3-40" value="로드셀 센서 3" style="rounded=0;whiteSpace=wrap;html=1;fillColor=#dae8fc;strokeColor=#6c8ebf;" vertex="1" parent="CC6OImh5O8wck14vR6c3-55">
          <mxGeometry x="0.5" y="60" width="201" height="30" as="geometry" />
        </mxCell>
        <mxCell id="CC6OImh5O8wck14vR6c3-41" value="로드셀 센서 4" style="rounded=0;whiteSpace=wrap;html=1;fillColor=#dae8fc;strokeColor=#6c8ebf;" vertex="1" parent="CC6OImh5O8wck14vR6c3-55">
          <mxGeometry x="0.5" y="90" width="201" height="30" as="geometry" />
        </mxCell>
        <mxCell id="CC6OImh5O8wck14vR6c3-43" value="초음파 센서 1" style="rounded=0;whiteSpace=wrap;html=1;fillColor=#dae8fc;strokeColor=#6c8ebf;" vertex="1" parent="1">
          <mxGeometry x="60" y="295" width="201" height="30" as="geometry" />
        </mxCell>
        <mxCell id="CC6OImh5O8wck14vR6c3-73" style="edgeStyle=orthogonalEdgeStyle;rounded=0;orthogonalLoop=1;jettySize=auto;html=1;exitX=1;exitY=1;exitDx=0;exitDy=0;entryX=0;entryY=0.5;entryDx=0;entryDy=0;" edge="1" parent="1" source="CC6OImh5O8wck14vR6c3-44" target="CC6OImh5O8wck14vR6c3-50">
          <mxGeometry relative="1" as="geometry">
            <Array as="points">
              <mxPoint x="270" y="355" />
              <mxPoint x="270" y="355" />
            </Array>
          </mxGeometry>
        </mxCell>
        <mxCell id="CC6OImh5O8wck14vR6c3-44" value="초음파 센서 2" style="rounded=0;whiteSpace=wrap;html=1;fillColor=#dae8fc;strokeColor=#6c8ebf;" vertex="1" parent="1">
          <mxGeometry x="60" y="325" width="201" height="30" as="geometry" />
        </mxCell>
        <mxCell id="CC6OImh5O8wck14vR6c3-45" value="초음파 센서 3" style="rounded=0;whiteSpace=wrap;html=1;fillColor=#dae8fc;strokeColor=#6c8ebf;" vertex="1" parent="1">
          <mxGeometry x="60" y="355" width="201" height="30" as="geometry" />
        </mxCell>
        <mxCell id="CC6OImh5O8wck14vR6c3-78" style="edgeStyle=orthogonalEdgeStyle;rounded=0;orthogonalLoop=1;jettySize=auto;html=1;exitX=0.5;exitY=1;exitDx=0;exitDy=0;entryX=0;entryY=0.5;entryDx=0;entryDy=0;" edge="1" parent="1" source="CC6OImh5O8wck14vR6c3-46" target="CC6OImh5O8wck14vR6c3-71">
          <mxGeometry relative="1" as="geometry">
            <mxPoint x="160" y="465" as="targetPoint" />
          </mxGeometry>
        </mxCell>
        <mxCell id="CC6OImh5O8wck14vR6c3-46" value="초음파 센서 4" style="rounded=0;whiteSpace=wrap;html=1;fillColor=#dae8fc;strokeColor=#6c8ebf;" vertex="1" parent="1">
          <mxGeometry x="60" y="385" width="201" height="30" as="geometry" />
        </mxCell>
        <mxCell id="CC6OImh5O8wck14vR6c3-57" style="edgeStyle=orthogonalEdgeStyle;rounded=0;orthogonalLoop=1;jettySize=auto;html=1;exitX=1;exitY=0;exitDx=0;exitDy=0;entryX=0;entryY=0.5;entryDx=0;entryDy=0;" edge="1" parent="1" source="CC6OImh5O8wck14vR6c3-40" target="CC6OImh5O8wck14vR6c3-37">
          <mxGeometry relative="1" as="geometry">
            <Array as="points">
              <mxPoint x="240" y="185" />
              <mxPoint x="240" y="185" />
            </Array>
          </mxGeometry>
        </mxCell>
        <mxCell id="CC6OImh5O8wck14vR6c3-79" style="edgeStyle=orthogonalEdgeStyle;rounded=0;orthogonalLoop=1;jettySize=auto;html=1;exitX=1;exitY=0.5;exitDx=0;exitDy=0;entryX=0;entryY=0.5;entryDx=0;entryDy=0;" edge="1" parent="1" source="CC6OImh5O8wck14vR6c3-71" target="CC6OImh5O8wck14vR6c3-51">
          <mxGeometry relative="1" as="geometry" />
        </mxCell>
        <mxCell id="CC6OImh5O8wck14vR6c3-81" value="Yes" style="edgeLabel;html=1;align=center;verticalAlign=middle;resizable=0;points=[];" vertex="1" connectable="0" parent="CC6OImh5O8wck14vR6c3-79">
          <mxGeometry x="-0.1022" y="2" relative="1" as="geometry">
            <mxPoint as="offset" />
          </mxGeometry>
        </mxCell>
        <mxCell id="CC6OImh5O8wck14vR6c3-85" style="edgeStyle=orthogonalEdgeStyle;rounded=0;orthogonalLoop=1;jettySize=auto;html=1;exitX=0.5;exitY=0;exitDx=0;exitDy=0;entryX=0.5;entryY=1;entryDx=0;entryDy=0;" edge="1" parent="1" source="CC6OImh5O8wck14vR6c3-71" target="CC6OImh5O8wck14vR6c3-84">
          <mxGeometry relative="1" as="geometry" />
        </mxCell>
        <mxCell id="CC6OImh5O8wck14vR6c3-71" value="로드셀 센서평균값 +&lt;br&gt;초음파센서 평균값 = 0" style="rhombus;whiteSpace=wrap;html=1;" vertex="1" parent="1">
          <mxGeometry x="643.88" y="477" width="203.75" height="80" as="geometry" />
        </mxCell>
        <mxCell id="CC6OImh5O8wck14vR6c3-75" style="edgeStyle=orthogonalEdgeStyle;rounded=0;orthogonalLoop=1;jettySize=auto;html=1;exitX=0.5;exitY=1;exitDx=0;exitDy=0;" edge="1" parent="1" source="CC6OImh5O8wck14vR6c3-41" target="CC6OImh5O8wck14vR6c3-71">
          <mxGeometry relative="1" as="geometry">
            <mxPoint x="410" y="485" as="targetPoint" />
            <Array as="points">
              <mxPoint x="31" y="245" />
              <mxPoint x="31" y="517" />
            </Array>
          </mxGeometry>
        </mxCell>
        <mxCell id="CC6OImh5O8wck14vR6c3-84" value="앨리베이터 내부 문제 발생&lt;br&gt;(분실물, 유기, 쓰레기)" style="shape=trapezoid;perimeter=trapezoidPerimeter;whiteSpace=wrap;html=1;fixedSize=1;" vertex="1" parent="1">
          <mxGeometry x="656.5" y="405" width="178.5" height="60" as="geometry" />
        </mxCell>
        <mxCell id="CC6OImh5O8wck14vR6c3-91" value="" style="endArrow=classic;html=1;rounded=0;strokeWidth=8;" edge="1" parent="1">
          <mxGeometry relative="1" as="geometry">
            <mxPoint x="40" y="50" as="sourcePoint" />
            <mxPoint x="1120" y="40" as="targetPoint" />
          </mxGeometry>
        </mxCell>
        <mxCell id="CC6OImh5O8wck14vR6c3-92" value="&lt;font style=&quot;font-size: 24px;&quot;&gt;&lt;b&gt;처리 흐름&lt;/b&gt;&lt;/font&gt;" style="edgeLabel;resizable=0;html=1;align=center;verticalAlign=middle;" connectable="0" vertex="1" parent="CC6OImh5O8wck14vR6c3-91">
          <mxGeometry relative="1" as="geometry" />
        </mxCell>
        <mxCell id="CC6OImh5O8wck14vR6c3-96" value="센서" style="rounded=0;whiteSpace=wrap;html=1;fillColor=#dae8fc;strokeColor=#6c8ebf;" vertex="1" parent="1">
          <mxGeometry x="980" y="95" width="120" height="25" as="geometry" />
        </mxCell>
        <mxCell id="CC6OImh5O8wck14vR6c3-97" value="OLED 출력" style="rounded=0;whiteSpace=wrap;html=1;fillColor=#d5e8d4;strokeColor=#82b366;" vertex="1" parent="1">
          <mxGeometry x="980" y="120" width="120" height="25" as="geometry" />
        </mxCell>
        <mxCell id="CC6OImh5O8wck14vR6c3-99" style="edgeStyle=orthogonalEdgeStyle;rounded=0;orthogonalLoop=1;jettySize=auto;html=1;exitX=1;exitY=0.5;exitDx=0;exitDy=0;entryX=0.047;entryY=0.5;entryDx=0;entryDy=0;entryPerimeter=0;" edge="1" parent="1" source="CC6OImh5O8wck14vR6c3-53" target="CC6OImh5O8wck14vR6c3-31">
          <mxGeometry relative="1" as="geometry" />
        </mxCell>
      </root>
    </mxGraphModel>
  </diagram>
</mxfile>
